<svg width="36" height="36" viewBox="0 0 36 36" fill="none" xmlns="http://www.w3.org/2000/svg">
<mask id="mask0_1_112" style="mask-type:alpha" maskUnits="userSpaceOnUse" x="3" y="0" width="27" height="33">
<path opacity="0.85" fill-rule="evenodd" clip-rule="evenodd" d="M11.9999 25.5H9.74966C8.68632 25.5 7.68759 25.2234 6.82149 24.7382C6.29413 25.8828 6 27.1571 6 28.5V33H30V28.5C30 23.5294 25.9706 19.5 21 19.5H17.9999C17.9999 22.8137 15.3136 25.5 11.9999 25.5Z" fill="black"/>
<path opacity="0.3" fill-rule="evenodd" clip-rule="evenodd" d="M17.9996 17.4546V11.2501C17.9996 8.76478 20.0144 6.75006 22.4996 6.75006H23.2498C23.6341 6.75006 24.0015 6.6778 24.3392 6.54614C24.6053 7.31503 24.7498 8.14066 24.7498 9.00006V10.7046C24.7498 14.4325 21.7278 17.4546 17.9998 17.4546C17.9998 17.4546 17.9997 17.4546 17.9996 17.4546Z" fill="black"/>
<path fill-rule="evenodd" clip-rule="evenodd" d="M9.74966 25.5H11.9999C15.3136 25.5 17.9999 22.8137 17.9999 19.5V11.25C17.9999 8.76472 20.0146 6.75 22.4999 6.75H23.25C24.1073 6.75 24.8806 6.39044 25.4273 5.81391C24.9778 2.94482 22.4951 0.75 19.4999 0.75H16.4997C12.3575 0.75 8.99958 4.10799 8.99969 8.2502L8.99983 13.5H9.00006V17.3998C9.00006 19.3881 7.38819 21 5.39984 21C4.79359 21 4.23985 20.7752 3.81738 20.4045C4.25352 23.2891 6.7434 25.5 9.74966 25.5Z" fill="url(#paint0_linear_1_112)"/>
</mask>
<g mask="url(#mask0_1_112)">
<path d="M0 0H36V36H0V0Z" fill="#404754"/>
</g>
<defs>
<linearGradient id="paint0_linear_1_112" x1="18" y1="2.25" x2="18.3399" y2="20.2436" gradientUnits="userSpaceOnUse">
<stop/>
<stop offset="1" stop-opacity="0.35"/>
</linearGradient>
</defs>
</svg>
